<?xml version="1.0" encoding="utf-8"?>
<!-- Generator: Adobe Illustrator 17.1.0, SVG Export Plug-In . SVG Version: 6.00 Build 0)  -->
<!DOCTYPE svg PUBLIC "-//W3C//DTD SVG 1.1//EN" "http://www.w3.org/Graphics/SVG/1.1/DTD/svg11.dtd">
<svg version="1.1" id="Layer_1" xmlns="http://www.w3.org/2000/svg" xmlns:xlink="http://www.w3.org/1999/xlink" x="0px" y="0px"
	 width="360px" height="360px" viewBox="0 0 360 360" enable-background="new 0 0 360 360" xml:space="preserve">
<g>
	<path fill="#E0F7FA" d="M214.4,98.6c9,0,16.3,7.3,16.3,16.3s-7.3,16.3-16.3,16.3c-9,0-16.3-7.3-16.3-16.3S205.4,98.6,214.4,98.6z
		 M287.8,155.7h-49v106.1h-16.3v-49h-16.3v49h-16.3V155.7h-49v-16.3h146.9V155.7z"/>
	<path fill="#E0F7FA" d="M108.9,180.2c4.5,0,8.2,3.7,8.2,8.2c0,4.5-3.7,8.2-8.2,8.2c-4.5,0-8.2-3.7-8.2-8.2
		C100.7,183.9,104.4,180.2,108.9,180.2z M145.6,208.8h-24.5v53H113v-24.5h-8.2v24.5h-8.2v-53H72.2v-8.2h73.4V208.8z"/>
</g>
</svg>
