<?xml version="1.0" encoding="utf-8"?>
<!-- Generator: Adobe Illustrator 17.1.0, SVG Export Plug-In . SVG Version: 6.00 Build 0)  -->
<!DOCTYPE svg PUBLIC "-//W3C//DTD SVG 1.1//EN" "http://www.w3.org/Graphics/SVG/1.1/DTD/svg11.dtd">
<svg version="1.1" id="Layer_1" xmlns="http://www.w3.org/2000/svg" xmlns:xlink="http://www.w3.org/1999/xlink" x="0px" y="0px"
	 width="360px" height="360px" viewBox="0 0 360 360" enable-background="new 0 0 360 360" xml:space="preserve">
<path fill="#E0F7FA" d="M180,225.7c9.3,0,16.8-7.5,16.8-16.8s-7.5-16.8-16.8-16.8s-16.8,7.5-16.8,16.8S170.7,225.7,180,225.7z
	 M230.4,150.1H222v-16.8c0-23.2-18.8-42-42-42s-42,18.8-42,42h16c0-14.4,11.7-26,26-26s26,11.7,26,26v16.8h-76.4
	c-9.3,0-16.8,7.5-16.8,16.8v84c0,9.3,7.5,16.8,16.8,16.8h100.8c9.3,0,16.8-7.5,16.8-16.8v-84C247.2,157.7,239.7,150.1,230.4,150.1z
	 M230.4,250.9H129.6v-84h100.8V250.9z"/>
</svg>
